<?xml version="1.0" encoding="UTF-8"?>
<svg width="18px" height="18px" viewBox="0 0 18 18" version="1.1" xmlns="http://www.w3.org/2000/svg">
    <path d="M15.4517484,13.880878 C15.0502386,14.7904888 14.5829861,15.6223578 14.0492393,16.3782721 C13.3197183,17.4071865 12.7140845,18.0777235 12.2335776,18.3898833 C11.4798619,18.8998803 10.6733721,19.1614458 9.81262704,19.1772696 C9.19733357,19.1772696 8.46015837,18.9983765 7.60678284,18.6358626 C6.75238786,18.2744422 5.9697803,18.0955492 5.25746514,18.0955492 C4.5177475,18.0955492 3.71173737,18.2744422 2.8381355,18.6358626 C1.96426973,18.9983765 1.25824333,19.1877839 0.71666648,19.2056943 C-0.100563094,19.2404284 -0.899818686,18.9683099 -1.68116479,17.4840126 C-2.51553425,16.3942894 -3.18495781,15.1079503 -3.68994644,13.6235627 C-4.23759582,11.9661645 -4.51153846,10.3582986 -4.51153846,8.79891888 C-4.51153846,7.02743196 -4.15080836,5.48744724 -3.42907869,4.17789681 C-2.85352276,3.13583884 -2.09502633,2.31347905 -1.15215688,1.71004657 C-0.209287439,1.10674989 0.811992562,0.799428247 1.91409449,0.783426772 C2.56888144,0.783426772 3.41720898,0.990103741 4.46195689,1.39765635 C5.50463111,1.80647135 6.14694709,2.01588634 6.38614264,2.01588634 C6.56210959,2.01588634 7.33153485,1.77241104 8.68859007,1.28720945 C9.96697445,0.837566801 11.0421567,0.649074532 11.9188347,0.717068505 C13.9953816,0.875306885 15.5200014,1.73240481 16.4869343,3.29202065 C14.6353507,4.43597935 13.7178323,5.99546522 13.7336561,7.96648505 C13.7483864,9.50902515 14.3085865,10.7847481 15.4118839,11.7869711 C15.9055907,12.2485079 16.4521067,12.6064586 17.0550711,12.8617039 C16.8661779,13.2252112 16.6661913,13.5697782 16.4517484,13.880878 Z M12.0374056,-3.27068229 C12.0374056,-1.9874852 11.5891535,-0.791841864 10.6948231,0.312961749 C9.61865804,1.61285954 8.27724314,2.37801265 6.83689961,2.27385981 C6.82217657,2.1233387 6.81368867,1.96599981 6.81368867,1.80161901 C6.81368867,0.572859572 7.32883803,-0.561433571 8.23980859,-1.46226246 C8.69520727,-1.91969693 9.26367503,-2.29979593 9.94551367,-2.60287687 C10.6262588,-2.89913996 11.2738227,-3.06148598 11.8871689,-3.08862747 C11.9882969,-2.81622162 12.0374056,-2.54394738 12.0374056,-2.27167315 L12.0374056,-3.27068229 Z" fill="#000000"></path>
</svg>